# xmcd
#
# Track frame offsets:
# 150
# 17241
# 32098
# 48338
# 63457
# 79362
# 95558
# 113516
# 126508
# 143331
# 159873
# 174763
# 191151
# 205802
# 220964
# 236618
#
# Disc length: 3316 seconds
#
#
# Revision: 0
# Processed by: cddbd v1.5.1PL0 Copyright (c) Steve Scherf et al.
# Submitted via: FreeRIP 2.942 
#
DISCID=d80cf210
DTITLE=Fernando Mendes - Recordações
DYEAR=2003
DGENRE=Ballad
TTITLE0=Você Não Me Ensinou A Te Esquecer
TTITLE1=Cadeira De Rodas
TTITLE2=Recordações
TTITLE3=Sorte Tem Quem Acredita Nela
TTITLE4=O Internato
TTITLE5=A Menina Da Calçada
TTITLE6=A Felicidade Está Onde Você Está
TTITLE7=Ontem, Hoje, Amanhã
TTITLE8=Até Segunda-Feira É Tempo Demais
TTITLE9=Impossível Acreditar Que Perdi Você
TTITLE10=Menina Dos Olhos D´Água
TTITLE11=A Desconhecida
TTITLE12=Nem Às Paredes Confesso
TTITLE13=Por Que Se Esconde?
TTITLE14=Gosto Muito De Você
TTITLE15=Minha Namorada Do Interior
EXTD=
EXTT0=
EXTT1=
EXTT2=
EXTT3=
EXTT4=
EXTT5=
EXTT6=
EXTT7=
EXTT8=
EXTT9=
EXTT10=
EXTT11=
EXTT12=
EXTT13=
EXTT14=
EXTT15=
PLAYORDER=
